**ABCDEFGHIJKLMNOPQRSTUVWXYZabcdefghijklmnopqrstuvwxyz**************************
**PARASOLID !"#$%&'()*+,-./:;<=>?@[\]^_`{|}~0123456789**************************
**PART1;
MC=AMD64;
MC_MODEL=Intel64 Family 6 Model 154 Stepping 3, GenuineIntel;
MC_ID=unknown;
OS=Windows_NT;
OS_RELEASE=unknown;
FRU=Parasolid Version 32.1, build 230,  5-23-2020;
APPL=SOLIDWORKS 2021-2020273;
SITE=;
USER=unknown;
FORMAT=text;
GUISE=transmit;
KEY=snap ring;
FILE=snap ring.x_t;
DATE=Tue Sep 16 19:22:08 2025;
**PART2;
SCH=SCH_3201230_32001;
USFLD_SIZE=0;
**PART3;
**END_OF_HEADER*****************************************************************
T51 : TRANSMIT FILE created by modeller version 320123023 SCH_3201230_32001_1300
6229 0 12 34 CCCCCCI4 mesh1006 0 I8 polyline1008 0 CCCCCCCDI5 owner1040 0 CCCCCC
I13 boundary_mesh1006 0 I17 boundary_polyline1008 0 CCCA16 index_map_offset0 0 1
 dA9 index_map82 0 A17 node_id_index_map82 0 A20 schema_embedding_map82 0 A5 chi
ld12 0 A14 lowest_node_id0 0 1 dA16 mesh_offset_data206 0 Z1 361 2 3 0 0 0 0 0 0
 1e3 1e-8 0 4 0 1 0 1 1 5 6 7 8 0 0 9 10 11 0 0 0 0 0 0 0 81 255 2 2 349 12 1 13
 0 0 0 0 14 70 11 CI9 list_type0 0 1 uI10 notransmit0 0 1 lCCCDCCDI12 finger_ind
ex0 0 1 dI12 finger_block1012 0 CZ3 0 4 T1 0 0 11 20 1 15 15 13 255 5 82 0 1 0 1
6 0 0 17 0 51 255 6 94 0 18 19 0 0 +.018 0 .01 1 0 0 .01045 0 424965751052692e-3
0 1 137 255 7 275 0 1 20 0 21 +22 23 0 ?29 255 8 114 0 24 25 0 .019 .00144509050
959072 .000806270581001503 19 8 CCCCCCCA5 owner12 0 Z9 1 0 1 17 0 26 V0 16 255 1
0 72 27 ?28 0 29 30 0 0 1 18 255 11 49 31 28 0 32 33 ?1 81 1 31 202 34 11 0 0 35
 36 37 17 255 28 0 38 39 40 11 41 10 0 42 +18 32 47 43 44 11 45 46 3544401057623
6e-19 1 29 33 102 0 11 47 48 .019 -.00389660591330817 .00188726527178659 29 47 1
01 0 49 50 33 .019 .003 .00200000002980232 29 48 103 0 51 33 52 .018 .0014450905
0959072 .000806270581001503 18 51 25 36 53 49 54 48 ?1 29 52 104 0 55 48 56 .018
 -.00368183724099524 .000220093327090461 18 55 21 57 58 54 59 52 ?1 29 56 105 0
 60 52 61 .018 -.00121356335497129 .00108219390248948 18 60 17 62 63 59 64 56 35
444010576236e-19 1 29 61 106 0 45 56 65 .019 -.00144509050959072 .00080627058100
1504 18 45 45 66 67 32 68 61 ?1 29 65 107 0 69 61 70 .018 .003 .0020000000298023
2 18 69 6 71 72 73 0 65 ?1 29 70 108 0 54 65 74 .018 .00368183724099523 .0002200
9332709046 18 54 23 75 76 51 55 70 ?1 29 74 109 0 77 70 78 .019 .003896605913308
19 .0018872652717866 18 77 36 79 80 81 82 74 ?1 29 78 110 0 82 74 83 .019 -.0018
 .00200000002980232 18 82 33 84 85 77 49 78 ?1 29 83 111 0 86 78 87 .018 .003896
60591330819 .0018872652717866 18 86 12 88 89 90 73 83 ?1 29 87 112 0 73 83 25 .0
18 -.0018 .00200000002980232 18 73 9 91 92 86 69 87 ?1 29 25 113 0 59 87 8 .018
 -.00144509050959072 .000806270581001504 18 59 19 93 94 55 60 25 ?1 81 1 93 213
 34 59 0 0 91 95 96 17 94 0 97 98 99 59 67 100 0 101 -15 255 97 68 0 98 102 0 17
 98 0 97 44 94 60 103 104 0 105 -17 99 0 97 94 44 45 106 107 0 108 -17 67 0 109
 110 101 45 94 100 0 99 +16 100 66 111 ?67 29 112 113 0 0 1 17 101 0 109 67 58 5
9 114 115 0 103 +15 109 65 0 101 116 0 17 58 0 109 101 110 55 117 112 0 118 -17
 114 0 119 120 103 55 101 115 0 0 -16 115 20 121 ?101 122 104 123 0 0 1 17 103 0
 119 114 105 59 98 104 0 0 +15 119 10 0 124 125 126 17 105 0 119 103 127 60 40 1
28 0 0 -16 104 18 129 ?103 115 128 130 0 0 1 81 1 129 238 131 104 132 0 121 133
 134 16 128 16 133 ?40 104 135 136 0 0 1 133 255 130 253 0 104 137 138 0 +138 .0
18 -.001213563353401924 .001082193901172626 .018 -.001445090509590722 .000806270
581001506 -515657500930789e-25 .000360192261882395 30 255 137 252 0 1 139 130 14
0 +.019 -.00121356338654775 .00108219386167097 0 .64278760968654 .76604444311897
8 30 138 254 0 1 130 136 141 +.018 -.00121356338654775 .00108219386167097 0 -.64
278760968654 -.766044443118978 133 136 255 0 128 138 142 0 +142 .018 -.001214497
81802367 .001082916833065522 .018 -.003896605913308165 .00188726527178659 .91234
1453451413 4.7881245513133 141 255 141 130 141 141 138 31 255 142 256 0 1 136 14
3 144 +.018 -.00240090576496159 .00200076005684753 1 0 0 0 0 -1 .0015 133 143 25
7 0 44 142 145 0 +145 .018 -.00121356328711032 .00108219398017588 .019 -.0012135
6328711032 .00108219398017588 0 1 141 144 136 144 144 142 17 44 0 97 99 98 32 63
 29 143 39 +137 145 258 0 1 143 146 147 +148 149 0 ?133 146 259 0 63 145 150 0 +
150 .019 -.001214497755066996 .001082916914443584 .018 -.001214497755066996 .001
082916914443584 0 1 141 147 143 147 147 145 50 255 148 89 0 102 22 151 152 +.018
 -.00144509050959072 .000806270581001504 0 .766044443118978 -.64278760968654 -1
 0 0 134 255 149 0 0 0 0 0 0 +153 154 136 255 153 1 2 2 2 5 FFF1 155 156 157 135
 255 154 2 0 45 255 4 155 0 .0003601924165795705 -.001 .0003601924165795705 127
 255 2 156 2 2 128 255 2 157 0 1 14 255 102 67 158 ?116 159 97 5 148 +0 0 116 15
9 26 50 22 88 0 160 161 148 162 +.018 .00121356338654775 .00108219386167097 0 -.
766044443118978 -.64278760968654 0 .64278760968654 -.766044443118978 51 151 90 0
 16 148 163 0 +.018 .0024 .00200000002980232 1 0 0 6e-4 0 1 0 141 152 145 152 15
2 148 14 16 78 164 ?165 0 166 5 151 -0 0 165 0 26 51 163 91 0 167 151 168 0 +.01
8 0 .01 1 0 0 .00900000013411045 0 -863506784063423e-30 1 14 167 73 169 ?159 165
 170 5 163 -0 0 159 165 26 51 168 92 0 171 163 19 0 +.018 .00297717939582868 .00
209184580037458 1 0 0 .002 0 -.766044443118977 -.64278760968654 14 171 58 172 ?1
60 18 173 5 168 +0 0 160 18 26 50 19 93 0 125 168 6 0 +.018 0 .0102709229001873
 1 0 0 0 1 0 14 125 3 174 ?0 175 119 5 19 -0 0 0 175 26 81 1 174 354 176 125 177
 0 172 178 179 14 175 27 178 ?125 180 181 5 182 +0 0 125 180 26 13 26 2 0 0 0 0
 0 0 9 16 81 1 178 355 176 175 183 0 174 184 185 14 180 51 184 ?175 160 186 5 18
7 +0 0 175 160 26 15 181 34 0 188 175 189 50 182 83 0 175 0 187 0 +.019 0 .01027
09229001873 1 0 0 0 1 0 51 187 84 0 180 182 190 191 +.018 .0024009057649616 .002
00076005684754 1 0 0 .0015 0 -.287347837118444 .95782629975552 51 190 85 0 116 1
87 192 0 +.018 -.00297717939582868 .00209184580037459 1 0 0 .002 0 -.35232892258
3278 -.935876236642061 141 191 193 191 191 187 137 193 273 0 1 194 20 195 +187 1
96 0 ?133 194 272 0 197 198 193 0 +193 .018 .001214497755067006 .001082916914443
592 .019 .001214497755067006 .001082916914443592 0 1 133 20 274 0 199 193 7 0 +7
 .019 .001213563287110322 .001082193980175882 .018 .001213563287110322 .00108219
3980175882 0 1 141 195 194 195 195 193 134 196 0 0 0 0 0 0 +200 201 136 200 1 2
 2 2 5 FFF1 202 203 204 135 201 2 0 45 4 202 1.937794387649635 0 1.9377943876496
35 .001 127 2 203 2 2 128 2 204 0 1 17 199 0 205 206 207 90 197 208 20 209 -15 2
05 56 0 206 160 0 17 206 0 205 210 199 51 209 211 0 212 +17 207 0 205 199 210 81
 213 214 0 188 -18 90 13 215 199 64 86 216 3544401057665235e-21 1 17 197 0 186 2
17 218 81 199 208 194 207 +16 208 53 219 3544401057665235e-21 197 220 221 0 0 0
 1 17 209 0 119 124 212 90 206 211 0 218 -17 124 0 119 127 209 86 218 222 0 0 -1
7 212 0 119 209 120 51 223 224 0 0 -16 211 26 225 ?206 226 224 227 0 0 1 17 218
 0 186 197 89 90 124 222 0 0 +15 186 52 0 218 180 0 17 89 0 186 218 217 86 80 22
0 0 228 -16 222 11 229 ?218 135 230 231 0 0 1 81 1 229 241 131 222 232 0 233 234
 235 16 135 14 233 ?127 128 222 236 0 0 1 16 230 8 234 ?92 222 237 238 0 0 1 133
 231 270 0 222 239 198 0 +198 .018 .003896605913308175 .0018872652717866 .018 .0
01214497818023578 .001082916833065664 1.49506075586629 5.37084385372806 30 239 2
69 0 1 227 231 240 +.018 .00121356338654775 .00108219386167097 0 .64278760968654
 -.766044443118978 31 198 271 0 1 231 194 241 +.018 .0024009057649616 .002000760
05684754 1 0 0 0 0 -1 .0015 141 241 231 241 241 198 133 227 268 0 211 242 239 0
 +239 .018 .001213563353401816 .001082193901172756 .018 .001445090509590722 .000
806270581001505 -515659189515688e-25 .0003601922618823955 141 240 227 240 240 23
9 31 242 267 0 1 243 227 244 +.019 .0024009057649616 .00200076005684754 1 0 0 0
 0 -1 .0015 133 243 266 0 245 246 242 0 +242 .019 .003896605913308175 .001887265
2717866 .019 .001214497818023578 .001082916833065664 1.49506075586629 5.37084385
372806 141 244 243 244 244 242 16 245 35 247 ?188 214 248 243 0 0 1 30 246 265 0
 1 249 243 250 +.019 .00121356338654775 .00108219386167097 0 .64278760968654 -.7
66044443118978 133 249 264 0 214 150 246 0 +246 .019 .001213563353401816 .001082
193901172756 .019 .001445090509590722 .000806270581001505 -515659189515688e-25 .
0003601922618823955 141 250 249 250 250 246 16 214 38 251 ?213 252 245 249 0 0 1
 137 150 260 0 1 146 249 253 +192 254 0 ?141 253 146 253 253 150 51 192 86 0 159
 190 161 255 +.018 -.00240090576496159 .00200076005684753 1 0 0 .0015 0 .2873478
37118444 .957826299755521 134 254 0 0 0 0 0 0 +256 257 136 256 1 2 2 2 5 FFF1 25
8 259 260 135 257 2 0 45 4 258 4.34539091952995 .001 4.34539091952995 0 127 2 25
9 2 2 128 2 260 0 1 14 159 70 261 ?102 167 38 5 192 +0 0 102 167 26 51 161 87 0
 165 192 22 0 +.018 -.0024 .00200000002980232 1 0 0 6e-4 0 1 0 141 255 150 255 2
55 192 14 165 75 262 ?167 16 263 5 161 -0 0 167 16 26 81 1 262 358 176 165 264 0
 261 265 266 15 263 77 0 267 165 268 17 267 0 263 267 267 82 85 248 0 0 -15 268
 76 0 92 165 0 17 92 0 268 92 92 73 269 230 0 269 +17 269 0 126 269 269 73 92 23
0 0 0 -15 126 7 0 269 125 270 15 270 4 0 271 125 0 17 271 0 270 271 271 69 72 23
7 0 0 -17 72 0 272 72 72 69 271 237 0 271 +16 237 5 273 ?72 230 0 274 0 0 1 81 1
 273 243 131 237 275 0 234 0 276 31 274 124 0 237 277 278 0 +.018 .0024 .0020000
0002980232 -1 0 0 0 1 0 6e-4 30 277 123 0 112 279 274 0 +.018 -.0036818372409952
4 .000220093327090461 1 0 0 31 278 125 0 248 274 113 0 +.019 -.0024 .00200000002
980232 -1 0 0 0 1 0 6e-4 16 248 32 280 ?85 245 226 278 0 0 1 30 113 127 0 100 27
8 123 0 +.018 -.00144509050959072 .000806270581001504 1 0 0 31 123 128 0 115 113
 30 0 +.018 -.00297717939582868 .00209184580037459 1 0 0 0 -.352328922583278 -.9
35876236642061 .002 30 30 131 0 10 123 281 0 +.018 -.00389660591330817 .00188726
527178659 1 0 0 31 281 132 0 282 30 283 0 +.019 -.00297717939582868 .00209184580
037459 1 0 0 0 -.352328922583278 -.935876236642061 .002 16 282 44 284 ?108 107 2
85 281 0 0 1 30 283 133 0 220 281 286 0 +.018 .00389660591330819 .00188726527178
66 1 0 0 16 220 54 287 ?80 288 208 283 0 0 1 30 286 134 0 289 283 290 0 +.018 .0
0368183724099523 .00022009332709046 1 0 0 16 289 60 291 ?292 112 288 286 0 0 1 3
1 290 135 0 285 286 236 0 +.019 0 .01 1 0 0 0 .352328922583276 -.935876236642062
 .01045 16 285 42 293 ?294 282 252 290 0 0 1 31 236 136 0 135 290 295 0 +.018 0
 .01 1 0 0 0 .432858405310692 -.901461924294024 .00900000013411045 31 295 137 0
 122 236 296 0 +.018 0 .01 1 0 0 0 .352328922583276 -.935876236642062 .01045 16
 122 22 297 ?118 224 115 295 0 0 1 31 296 138 0 226 295 298 0 +.019 .0024 .00200
000002980232 -1 0 0 0 1 0 6e-4 16 226 29 299 ?300 248 211 296 0 0 1 31 298 142 0
 224 296 301 0 +.018 .00297717939582868 .00209184580037458 1 0 0 0 -.76604444311
8977 -.64278760968654 .002 16 224 24 302 ?223 211 122 298 0 0 1 133 301 249 0 30
3 298 304 0 +304 .019 -.00121449781802367 .001082916833065522 .019 -.00389660591
3308165 .00188726527178659 .912341453451413 4.7881245513133 16 303 48 305 ?306 2
21 107 301 0 0 1 31 304 250 0 1 301 139 307 +.019 -.00240090576496159 .002000760
05684753 1 0 0 0 0 -1 .0015 133 139 251 0 107 304 137 0 +137 .019 -.001445090509
590722 .000806270581001506 .019 -.001213563353401924 .001082193901172626 -.00036
0192261882395 515657500930789e-25 141 307 301 307 307 304 16 107 46 308 ?106 303
 282 139 0 0 1 81 1 308 226 131 107 309 0 305 284 310 17 106 0 181 306 108 32 99
 107 0 0 +17 306 0 181 311 106 11 39 303 0 0 +17 108 0 181 106 294 45 110 282 0
 0 +17 294 0 181 108 312 68 313 285 0 0 +17 110 0 109 58 67 68 108 282 0 294 -18
 68 43 314 117 45 315 316 ?1 81 1 314 197 34 68 0 0 317 43 318 17 117 0 319 313
 118 68 58 112 0 110 +18 315 41 320 292 68 24 321 ?1 29 316 97 0 68 322 46 .019
 -.00368183724099524 .000220093327090461 29 322 96 0 64 321 316 .018 -.003896605
91330817 .00188726527178659 29 46 98 0 32 316 216 .019 -.00121356335497129 .0010
8219390248948 29 216 99 0 90 46 50 .018 .00121356335497117 .0010821939024896 29
 50 100 0 81 216 47 .019 .00121356335497117 .0010821939024896 18 81 37 323 197 2
4 77 50 3544401057665235e-21 1 81 1 323 200 34 81 0 0 215 35 324 18 24 39 95 210
 315 81 8 ?1 81 1 95 214 34 24 0 0 93 325 326 17 210 0 205 207 206 24 53 288 0 3
27 +17 53 0 173 223 327 51 210 288 0 206 -16 288 57 328 ?210 289 220 279 0 0 1 1
7 327 0 173 53 292 24 312 252 0 213 -15 173 59 0 223 171 0 17 292 0 173 327 223
 315 76 289 0 313 +17 312 0 181 294 213 315 327 252 0 0 +16 252 40 329 ?312 285
 214 330 0 0 1 17 213 0 181 312 188 24 207 214 0 0 +17 188 0 181 213 311 81 217
 245 0 0 +17 311 0 181 188 306 77 42 221 0 217 +17 217 0 186 89 197 77 188 245 0
 0 -17 42 0 170 41 80 11 311 221 0 306 -16 221 50 331 ?311 208 303 332 0 0 1 81
 1 331 224 131 221 333 0 219 305 334 31 332 121 0 221 238 279 0 +.019 0 .01 -1 0
 0 0 .432858405310692 -.901461924294024 .00900000013411045 31 238 120 0 230 330
 332 0 +.018 -.0024 .00200000002980232 -1 0 0 0 1 0 6e-4 30 279 122 0 288 332 27
7 0 +.018 .00144509050959072 .000806270581001503 1 0 0 31 330 115 0 252 0 238 0
 +.019 .00297717939582868 .00209184580037458 1 0 0 0 -.766044443118977 -.6427876
0968654 .002 80 255 1 131 0 335 8001 0 0 0 0 3 5 0 0 0 FFFFTFTFFFFFFF2 81 1 333
 149 34 221 0 331 336 337 338 81 1 219 223 131 208 339 0 287 331 340 81 1 305 22
5 131 303 341 0 331 308 342 83 255 3 334 .0980392172932625 .0980392172932625 .09
80392172932625 81 1 341 158 34 303 0 305 343 344 345 83 3 342 .0980392172932625
 .0980392172932625 .0980392172932625 80 1 34 346 347 9000 0 0 0 0 3 6 0 0 0 TTTF
TFTTTFFFFF3 81 1 343 157 34 214 0 251 348 341 349 81 1 344 159 34 10 0 27 341 35
0 351 84 255 3 345 11681 1 27 216 131 10 344 0 352 353 354 81 1 350 160 34 282 0
 284 344 355 356 84 3 351 12581 1 284 227 131 282 350 0 308 293 357 81 1 355 161
 34 220 0 287 350 358 359 84 3 356 11481 1 287 222 131 220 355 0 328 219 360 81
 1 358 162 34 289 0 291 355 361 362 84 3 359 11981 1 291 220 131 289 358 0 363 3
28 364 81 1 361 163 34 285 0 293 358 365 366 84 3 362 12181 1 293 228 131 285 36
1 0 284 329 367 81 1 365 164 34 135 0 233 361 368 369 84 3 366 11381 1 233 240 1
31 135 365 0 133 229 370 81 1 368 165 34 122 0 297 365 371 372 84 3 369 10181 1
 297 236 131 122 368 0 302 121 373 81 1 371 166 34 226 0 299 368 374 375 84 3 37
2 10581 1 299 233 131 226 371 0 280 225 376 81 1 374 167 34 128 0 133 371 339 37
7 84 3 375 10881 1 133 239 131 128 374 0 129 233 378 81 1 339 168 34 208 0 219 3
74 379 380 84 3 377 10281 1 379 169 34 29 0 353 339 381 382 84 3 380 11816 29 69
 353 35444010576236e-19 44 10 100 0 0 0 1 81 1 353 217 131 29 379 0 27 111 383 8
1 1 381 170 34 224 0 302 379 183 384 84 3 382 12481 1 302 235 131 224 381 0 225
 297 385 81 1 183 172 34 175 386 178 381 387 388 84 3 384 10681 1 386 171 131 17
5 0 183 0 389 390 81 1 387 174 34 180 389 184 183 391 392 84 3 388 20381 1 389 1
73 131 180 0 387 386 393 394 81 1 184 356 176 180 387 0 178 261 395 81 1 391 176
 34 116 393 265 387 396 397 84 3 392 20414 116 64 265 ?18 102 109 5 190 +0 0 18
 102 26 81 1 393 175 131 116 0 391 389 398 399 81 1 265 359 176 116 391 0 262 40
0 401 81 1 396 178 34 159 398 261 391 264 402 84 3 397 20881 1 398 177 131 159 0
 396 393 403 404 81 1 261 357 176 159 396 0 184 262 405 81 1 264 180 34 165 403
 262 396 406 407 84 3 402 21081 1 403 179 131 165 0 264 398 408 409 81 1 406 182
 34 160 408 400 264 410 411 84 3 407 21214 160 55 400 ?180 171 205 5 22 +0 0 180
 171 26 81 1 408 181 131 160 0 406 403 412 413 81 1 400 360 176 160 406 0 265 41
4 415 81 1 410 184 34 102 412 158 406 416 417 84 3 411 20581 1 412 183 131 102 0
 410 408 418 419 81 1 158 350 176 102 410 0 0 164 420 81 1 416 186 34 16 418 164
 410 421 422 84 3 417 20981 1 418 185 131 16 0 416 412 423 424 81 1 164 351 176
 16 416 0 158 169 425 81 1 421 188 34 167 423 169 416 426 427 84 3 422 21381 1 4
23 187 131 167 0 421 418 428 429 81 1 169 352 176 167 421 0 164 172 430 81 1 426
 190 34 171 428 172 421 177 431 84 3 427 21181 1 428 189 131 171 0 426 423 432 4
33 81 1 172 353 176 171 426 0 169 174 434 81 1 177 192 34 125 432 174 426 435 43
6 84 3 431 20681 1 432 191 131 125 0 177 428 352 437 81 1 435 194 34 18 352 414
 177 320 438 84 3 436 20214 18 61 414 ?171 116 319 5 6 +0 0 171 116 26 81 1 352
 193 131 18 0 435 432 27 439 81 1 414 361 176 18 435 0 400 0 440 81 1 320 195 34
 315 0 0 435 317 441 84 3 438 20781 1 317 196 34 64 0 0 320 314 442 84 3 441 141
18 64 15 317 41 60 90 322 ?1 84 3 442 13017 41 0 170 228 42 64 28 10 0 40 -15 17
0 74 0 228 167 0 17 228 0 170 80 41 86 127 135 0 124 -17 40 0 38 28 63 64 105 12
8 0 127 +15 38 71 0 40 159 0 17 63 0 38 40 39 60 44 29 146 98 -17 127 0 119 105
 124 64 228 135 0 0 +17 39 0 38 63 28 32 306 303 0 106 -17 80 0 170 42 228 77 89
 220 0 311 +80 1 176 443 444 9000 1 1 1 1 1 1 1 1 0 FFFFTFTFFFFFFF1 82 255 1 440
 -1002504079 79 255 14 444 SWEntUnchanged83 3 439 .0980392156862745 .09803921568
62745 .0980392156862745 15 319 62 0 118 18 0 17 118 0 319 117 76 55 120 122 0 11
4 +17 76 0 319 118 313 54 292 289 0 223 -17 120 0 119 212 114 54 118 122 0 0 -17
 313 0 319 76 117 315 294 285 0 312 -17 223 0 173 292 53 54 212 224 0 120 +83 3
 437 .0980392156862745 .0980392156862745 .0980392156862745 82 1 434 -1014497167
 83 3 433 .0980392156862745 .0980392156862745 .0980392156862745 82 1 430 -101462
8239 83 3 429 .0980392156862745 .0980392156862745 .0980392156862745 82 1 425 -10
14759311 83 3 424 .0980392156862745 .0980392156862745 .0980392156862745 82 1 420
 -1014955919 83 3 419 .0980392156862745 .0980392156862745 .0980392156862745 82 1
 415 -1001717647 83 3 413 .0980392156862745 .0980392156862745 .0980392156862745
 83 3 409 .0980392156862745 .0980392156862745 .0980392156862745 82 1 405 -101141
6975 83 3 404 .0980392156862745 .0980392156862745 .0980392156862745 82 1 401 -10
01324431 83 3 399 .0980392156862745 .0980392156862745 .0980392156862745 82 1 395
 -1014038415 83 3 394 .0980392156862745 .0980392156862745 .0980392156862745 83 3
 390 .0980392156862745 .0980392156862745 .0980392156862745 81 1 225 234 131 211
 445 0 299 302 446 83 3 385 .0980392172932625 .0980392172932625 .098039217293262
5 81 1 445 145 34 211 0 225 232 309 447 83 3 446 .0980392172932625 .098039217293
2625 .0980392172932625 81 1 232 144 34 222 0 229 448 445 449 81 1 309 146 34 107
 0 308 445 450 451 84 3 447 10781 1 450 147 34 245 0 247 309 336 452 84 3 451 11
581 1 247 231 131 245 450 0 251 280 453 81 1 336 148 34 230 0 234 450 333 454 84
 3 452 11081 1 234 242 131 230 336 0 229 273 455 84 2 454 9983 3 455 .0980392172
932625 .0980392172932625 .0980392172932625 81 1 251 230 131 214 343 0 329 247 45
6 81 1 280 232 131 248 457 0 247 299 458 83 3 453 .0980392172932625 .09803921729
32625 .0980392172932625 81 1 457 153 34 248 0 280 275 132 459 83 3 458 .09803921
72932625 .0980392172932625 .0980392172932625 81 1 275 152 34 237 0 273 460 457 4
61 81 1 132 154 34 104 0 129 457 462 463 84 3 459 10981 1 462 155 34 100 0 111 1
32 348 464 84 3 463 10381 1 111 218 131 100 462 0 353 363 465 81 1 348 156 34 11
5 0 121 462 343 466 84 3 464 12381 1 121 237 131 115 348 0 297 129 467 84 3 466
 10483 3 467 .0980392172932625 .0980392172932625 .0980392172932625 81 1 363 219
 131 112 460 0 111 291 468 83 3 465 .0980392172932625 .0980392172932625 .0980392
172932625 16 112 63 363 ?117 100 289 277 0 0 1 81 1 460 151 34 112 0 363 337 275
 469 83 3 468 .0980392172932625 .0980392172932625 .0980392172932625 81 1 337 150
 34 288 0 328 333 460 470 84 3 469 12281 1 328 221 131 288 337 0 291 287 471 84
 3 470 12083 3 471 .0980392172932625 .0980392172932625 .0980392172932625 84 2 46
1 9881 1 329 229 131 252 448 0 293 251 472 83 3 456 .0980392172932625 .098039217
2932625 .0980392172932625 81 1 448 143 34 252 0 329 0 232 473 83 3 472 .09803921
72932625 .0980392172932625 .0980392172932625 84 3 473 11284 3 449 10083 3 383 .0
980392172932625 .0980392172932625 .0980392172932625 83 3 378 .0980392172932625 .
0980392172932625 .0980392172932625 83 3 376 .0980392172932625 .0980392172932625
 .0980392172932625 83 3 373 .0980392172932625 .0980392172932625 .098039217293262
5 83 3 370 .0980392172932625 .0980392172932625 .0980392172932625 83 3 367 .09803
92172932625 .0980392172932625 .0980392172932625 83 3 364 .0980392172932625 .0980
392172932625 .0980392172932625 83 3 360 .0980392172932625 .0980392172932625 .098
0392172932625 83 3 357 .0980392172932625 .0980392172932625 .0980392172932625 83
 3 354 .0980392172932625 .0980392172932625 .0980392172932625 84 3 349 11179 20 3
47 ATTRIB_XPARASOLID_ID83 3 340 .0980392172932625 .0980392172932625 .09803921729
32625 84 3 338 11779 15 335 SDL/TYSA_COLOUR81 1 325 246 34 1 474 475 95 0 476 84
 3 326 14081 1 474 245 477 1 478 325 0 0 479 81 2 475 278 480 1 325 481 0 0 0 48
2 84 3 476 22380 2 480 483 484 9000 0 0 0 0 3 5 0 0 0 FFTFFFFFFFFFFF9 1 81 2 481
 279 485 1 475 486 0 0 0 487 82 1 482 38 80 2 485 488 489 9000 0 0 0 0 3 5 0 0 0
 FFTFFFFFFFFFFT9 1 81 2 486 306 490 1 481 13 0 0 0 0 82 1 487 103 80 2 490 491 4
92 9000 0 0 0 0 3 5 0 0 0 FFTFFFFFFFFFFF9 1 81 1 13 319 493 1 486 2 0 0 494 80 1
 493 495 496 9000 1 1 1 1 1 1 1 1 0 FFTFFFFFFFFFFF1 82 1 494 115499 79 10 496 BO
DY_MATCH79 16 492 BODY_RECIPE_200179 19 489 ENT_TIME_STAMP_200179 30 484 LAST_BO
DY_MODIFYING_FEATURE_ID80 1 477 497 498 9000 0 0 0 0 3 5 0 0 0 TFTFTFTFFFFFFF3 8
1 1 478 244 499 1 500 474 0 0 501 84 11 479 Snap Ring 180 1 499 502 503 8017 0 0
 0 0 0 0 0 0 0 TTTTTTTTTTTTTF3 81 1 500 215 504 1 0 478 0 0 505 84 11 501 Snap R
ing 180 1 504 131 506 8040 0 0 0 0 3 5 0 0 0 TTTFFFFFFFFFFF2 83 3 505 .098039217
2932625 .0980392172932625 .0980392172932625 79 17 506 SDL/TYSA_COLOUR_279 13 503
 SDL/TYSA_NAME79 22 498 ATTRIB_XPARASOLID_NAME81 1 215 199 34 90 0 0 43 323 507
 81 1 35 201 34 49 0 0 323 31 508 84 3 324 13918 49 30 35 300 82 51 47 ?1 84 3 5
08 13617 300 0 509 300 300 49 510 226 0 510 +15 509 28 0 300 175 0 17 510 0 166
 510 510 49 300 226 0 0 -15 166 80 0 510 16 272 15 272 79 0 72 16 0 81 1 43 198
 34 32 0 0 314 215 511 84 3 507 12984 3 511 14429 321 95 0 315 0 322 .019 .00368
183724099523 .00022009332709046 84 3 318 14283 3 310 .0980392172932625 .09803921
72932625 .0980392172932625 17 85 0 189 85 85 82 267 248 0 267 +15 189 31 0 85 17
5 509 83 3 276 .0980392172932625 .0980392172932625 .0980392172932625 82 1 266 -1
011285903 83 3 235 .0980392172932625 .0980392172932625 .0980392172932625 82 1 18
5 -1014235023 82 1 179 -1014366095 141 162 7 162 162 22 141 140 139 140 140 137
 83 3 134 .0980392172932625 .0980392172932625 .0980392172932625 81 1 91 212 34 7
3 0 0 88 93 512 84 3 96 13281 1 88 211 34 86 0 0 84 91 513 84 3 512 12781 1 84 2
10 34 82 0 0 79 88 514 84 3 513 12881 1 79 209 34 77 0 0 75 84 515 84 3 514 1378
1 1 75 208 34 54 0 0 71 79 516 84 3 515 13881 1 71 207 34 69 0 0 66 75 517 84 3
 516 13481 1 66 206 34 45 0 0 62 71 518 84 3 517 12681 1 62 205 34 60 0 0 57 66
 519 84 3 518 14381 1 57 204 34 55 0 0 36 62 520 84 3 519 13181 1 36 203 34 51 0
 0 31 57 521 84 3 520 13384 3 521 13584 3 37 14519 17 81 0 1 0 9 5 S0 141 21 20
 21 21 7 134 23 0 0 0 0 0 0 +522 523 136 522 1 2 2 2 5 FFF1 524 525 526 135 523
 2 0 45 4 524 -1546971757145295e-25 .001 -1546971757145295e-25 0 127 2 525 2 2 1
28 2 526 0 1 74 4 CI16 index_map_offset0 0 1 dCCZ20 15 11 0 0 325 273 500 478 47
4 475 481 486 414 13 2 0 0 0 0 0 0 0 0 0 80 2 12 527 528 9000 0 0 0 0 3 5 0 0 0
 FFTFFFFFFFFFFF9 1 82 1 14 101 79 12 528 ATOM_ID_20011 0 
